# xmcd
#
# Track frame offsets:
#	150
#	12255
#	32075
#	65852
#	93756
#	123432
#	142173
#	160052
#	179597
#	197358
#	221669
#	229952
#	246710
#
# Disc length: 3741 seconds
#
# Revision: 0
# Processed by: cddbd v1.4PL0 Copyright (c) Steve Scherf et al.
# Submitted via: dBpowerAMP V4.0
#
DISCID=c10e9b0d
DTITLE=Dan Reading - 2 for 1
DYEAR=2002
DGENRE=Blues
TTITLE0=Wait n' See
TTITLE1=What's on my Mind?!
TTITLE2=Beer Goggles
TTITLE3=Sun For A Day
TTITLE4=Stormy Monday (tribute)
TTITLE5=Talk Ta Me
TTITLE6=Money Manager
TTITLE7=So What! (What's Love Anyway?)
TTITLE8=Caused my Heart to Stray
TTITLE9=No Sex
TTITLE10=Baby Love
TTITLE11=WRNR Live Clips (6-21-01)
TTITLE12=Beer Goggles (orig. 4-track)
EXTD=
EXTT0=
EXTT1=
EXTT2=
EXTT3=
EXTT4=
EXTT5=
EXTT6=
EXTT7=
EXTT8=
EXTT9=
EXTT10=
EXTT11=
EXTT12=
PLAYORDER=
